<?xml version="1.0" encoding="utf-8"?>
<!-- Generator: Adobe Illustrator 16.0.0, SVG Export Plug-In . SVG Version: 6.00 Build 0)  -->
<!DOCTYPE svg PUBLIC "-//W3C//DTD SVG 1.1//EN" "http://www.w3.org/Graphics/SVG/1.1/DTD/svg11.dtd">
<svg version="1.1" id="图层_3" xmlns="http://www.w3.org/2000/svg" xmlns:xlink="http://www.w3.org/1999/xlink" x="0px" y="0px"
	 width="192px" height="192px" viewBox="0 0 192 192" enable-background="new 0 0 192 192" xml:space="preserve">
<path fill="#FBBC05" d="M8.125,43.625v104.75c0,6.216,5.034,11.25,11.25,11.25h153.25c6.215,0,11.25-5.034,11.25-11.25V43.625
	c0-6.215-5.035-11.25-11.25-11.25H19.375C13.159,32.375,8.125,37.41,8.125,43.625z"/>
<rect x="20" y="43.5" fill="#34A853" width="152.5" height="105.5"/>
<rect x="20" y="43.5" fill="#388E3C" width="152.5" height="9.167"/>
<g>
	<path fill="#FFFFFF" d="M42.668,97.371c0.918,0,1.6-0.238,2.046-0.715s0.669-1.148,0.669-2.013c0-0.724-0.234-1.325-0.702-1.801
		c-0.468-0.477-1.121-0.715-1.96-0.715c-0.707,0-1.3,0.216-1.781,0.649c-0.481,0.433-0.722,0.985-0.722,1.656h-3.735l-0.026-0.08
		c-0.053-1.51,0.53-2.755,1.748-3.735s2.724-1.47,4.516-1.47c1.995,0,3.58,0.47,4.754,1.411s1.762,2.289,1.762,4.046
		c0,0.883-0.254,1.693-0.762,2.43s-1.203,1.318-2.086,1.742c1.007,0.379,1.784,0.955,2.331,1.728
		c0.547,0.773,0.821,1.707,0.821,2.802c0,1.766-0.638,3.154-1.914,4.165s-2.912,1.517-4.907,1.517c-1.757,0-3.293-0.477-4.609-1.431
		c-1.316-0.953-1.951-2.291-1.907-4.013l0.027-0.079h3.761c0,0.724,0.253,1.33,0.761,1.82s1.163,0.735,1.967,0.735
		c0.883,0,1.598-0.261,2.146-0.781c0.547-0.521,0.821-1.179,0.821-1.974c0-1.016-0.256-1.768-0.768-2.258
		c-0.512-0.49-1.263-0.735-2.251-0.735h-2.132v-2.9H42.668z"/>
	<path fill="#FFFFFF" d="M56.336,108.708h-3.867v-3.391h3.867V108.708z"/>
	<path fill="#FFFFFF" d="M68.997,108.708h-3.854V92.789h-3.986v-2.953l7.84-0.689V108.708z"/>
	<path fill="#FFFFFF" d="M86.665,101.529h2.172v2.993h-2.172v4.186h-3.867v-4.186h-7.854l-0.186-2.317l8-12.78h3.907V101.529z
		 M78.268,101.529h4.529v-7.005l-0.08-0.014l-0.397,0.861L78.268,101.529z"/>
	<path fill="#FFFFFF" d="M100.121,108.708h-3.854V92.789H92.28v-2.953l7.841-0.689V108.708z"/>
	<path fill="#FFFFFF" d="M106.98,100.205l1.112-10.78h10.755v3.099h-7.589l-0.53,4.502c0.362-0.265,0.816-0.483,1.364-0.655
		c0.547-0.172,1.144-0.267,1.788-0.284c1.792-0.027,3.181,0.527,4.165,1.662c0.984,1.134,1.477,2.726,1.477,4.774
		c0,1.89-0.534,3.438-1.603,4.648s-2.701,1.814-4.9,1.814c-1.774,0-3.293-0.471-4.556-1.411c-1.263-0.939-1.872-2.231-1.828-3.873
		l0.027-0.066l3.721-0.172c0,0.803,0.243,1.43,0.729,1.88c0.486,0.45,1.121,0.676,1.907,0.676c0.919,0,1.587-0.3,2.007-0.9
		c0.419-0.601,0.629-1.457,0.629-2.569s-0.229-1.998-0.688-2.655c-0.459-0.658-1.139-0.987-2.04-0.987
		c-0.741,0-1.309,0.138-1.701,0.411c-0.394,0.273-0.674,0.645-0.842,1.112L106.98,100.205z"/>
	<path fill="#FFFFFF" d="M127.748,106.02c0.953,0,1.734-0.359,2.344-1.079s0.914-1.724,0.914-3.014v-1.244
		c-0.433,0.556-0.944,0.976-1.536,1.258s-1.228,0.424-1.907,0.424c-1.792,0-3.198-0.583-4.218-1.748
		c-1.021-1.166-1.53-2.75-1.53-4.755c0-1.934,0.604-3.536,1.814-4.808s2.755-1.907,4.636-1.907c1.942,0,3.527,0.654,4.755,1.96
		c1.227,1.307,1.841,3.117,1.841,5.43v5.191c0,2.225-0.669,3.991-2.007,5.298s-3.039,1.96-5.105,1.96
		c-0.671,0-1.362-0.073-2.073-0.219c-0.71-0.146-1.379-0.351-2.006-0.616l0.648-2.794c0.557,0.229,1.1,0.397,1.629,0.503
		C126.477,105.967,127.077,106.02,127.748,106.02z M128.212,99.53c0.626,0,1.179-0.128,1.655-0.385
		c0.477-0.256,0.856-0.6,1.139-1.032v-2.252c0-1.209-0.247-2.134-0.741-2.774c-0.495-0.64-1.157-0.96-1.987-0.96
		c-0.776,0-1.403,0.36-1.88,1.08c-0.478,0.72-0.716,1.604-0.716,2.655c0,1.104,0.217,1.991,0.649,2.662S127.391,99.53,128.212,99.53
		z"/>
	<path fill="#FFFFFF" d="M142.038,108.708h-3.867v-3.391h3.867V108.708z"/>
	<path fill="#FFFFFF" d="M149.932,108.708h-3.867v-3.391h3.867V108.708z"/>
	<path fill="#FFFFFF" d="M157.824,108.708h-3.867v-3.391h3.867V108.708z"/>
</g>
</svg>
